%TF.GenerationSoftware,KiCad,Pcbnew,9.0.0*%
%TF.CreationDate,2025-03-19T15:37:07+00:00*%
%TF.ProjectId,SparkFun_GNSS_mosaic-T_panelized,53706172-6b46-4756-9e5f-474e53535f6d,v01*%
%TF.SameCoordinates,Original*%
%TF.FileFunction,Copper,L3,Inr*%
%TF.FilePolarity,Positive*%
%FSLAX46Y46*%
G04 Gerber Fmt 4.6, Leading zero omitted, Abs format (unit mm)*
G04 Created by KiCad (PCBNEW 9.0.0) date 2025-03-19 15:37:07*
%MOMM*%
%LPD*%
G01*
G04 APERTURE LIST*
%TA.AperFunction,ComponentPad*%
%ADD10C,1.879600*%
%TD*%
%TA.AperFunction,ComponentPad*%
%ADD11O,1.600000X1.000000*%
%TD*%
%TA.AperFunction,ComponentPad*%
%ADD12O,2.100000X1.000000*%
%TD*%
%TA.AperFunction,ViaPad*%
%ADD13C,0.609600*%
%TD*%
%TA.AperFunction,Conductor*%
%ADD14C,0.558800*%
%TD*%
%TA.AperFunction,Conductor*%
%ADD15C,0.281940*%
%TD*%
%TA.AperFunction,Conductor*%
%ADD16C,0.177800*%
%TD*%
G04 APERTURE END LIST*
D10*
%TO.N,VUSB*%
%TO.C,J3*%
X25400000Y49530000D03*
%TO.N,VBATT*%
X27940000Y49530000D03*
%TO.N,~{RESET}*%
X30480000Y49530000D03*
%TO.N,RDY*%
X33020000Y49530000D03*
%TO.N,LOG_LED*%
X38100000Y49530000D03*
%TO.N,PMIC_ON_REQ*%
X40640000Y49530000D03*
%TO.N,ON_OFF*%
X43180000Y49530000D03*
%TD*%
%TO.N,VUSB*%
%TO.C,J3*%
X25400000Y100830000D03*
%TO.N,VBATT*%
X27940000Y100830000D03*
%TO.N,~{RESET}*%
X30480000Y100830000D03*
%TO.N,RDY*%
X33020000Y100830000D03*
%TO.N,LOG_LED*%
X38100000Y100830000D03*
%TO.N,PMIC_ON_REQ*%
X40640000Y100830000D03*
%TO.N,ON_OFF*%
X43180000Y100830000D03*
%TD*%
%TO.N,VUSB*%
%TO.C,J3*%
X97020000Y49530000D03*
%TO.N,VBATT*%
X99560000Y49530000D03*
%TO.N,~{RESET}*%
X102100000Y49530000D03*
%TO.N,RDY*%
X104640000Y49530000D03*
%TO.N,LOG_LED*%
X109720000Y49530000D03*
%TO.N,PMIC_ON_REQ*%
X112260000Y49530000D03*
%TO.N,ON_OFF*%
X114800000Y49530000D03*
%TD*%
%TO.N,VUSB*%
%TO.C,J3*%
X97020000Y100830000D03*
%TO.N,VBATT*%
X99560000Y100830000D03*
%TO.N,~{RESET}*%
X102100000Y100830000D03*
%TO.N,RDY*%
X104640000Y100830000D03*
%TO.N,LOG_LED*%
X109720000Y100830000D03*
%TO.N,PMIC_ON_REQ*%
X112260000Y100830000D03*
%TO.N,ON_OFF*%
X114800000Y100830000D03*
%TD*%
%TO.N,3.3V*%
%TO.C,J4*%
X12700000Y1270000D03*
%TD*%
%TO.N,3.3V*%
%TO.C,J4*%
X84320000Y52570000D03*
%TD*%
%TO.N,3.3V*%
%TO.C,J4*%
X84320000Y1270000D03*
%TD*%
%TO.N,3.3V*%
%TO.C,J4*%
X12700000Y52570000D03*
%TD*%
D11*
%TO.N,unconnected-(J7-NC-PadNC1)*%
%TO.C,J7*%
X1255000Y15113000D03*
D12*
%TO.N,unconnected-(J7-NC-PadNC2)*%
X5435000Y15113000D03*
%TO.N,unconnected-(J7-NC-PadNC3)*%
X5435000Y6477000D03*
D11*
%TO.N,Net-(J7-SHIELD)*%
X1255000Y6477000D03*
%TD*%
%TO.N,unconnected-(J7-NC-PadNC1)*%
%TO.C,J7*%
X72875000Y15113000D03*
D12*
%TO.N,unconnected-(J7-NC-PadNC2)*%
X77055000Y15113000D03*
%TO.N,unconnected-(J7-NC-PadNC3)*%
X77055000Y6477000D03*
D11*
%TO.N,Net-(J7-SHIELD)*%
X72875000Y6477000D03*
%TD*%
%TO.N,unconnected-(J7-NC-PadNC1)*%
%TO.C,J7*%
X72875000Y66413000D03*
D12*
%TO.N,unconnected-(J7-NC-PadNC2)*%
X77055000Y66413000D03*
%TO.N,unconnected-(J7-NC-PadNC3)*%
X77055000Y57777000D03*
D11*
%TO.N,Net-(J7-SHIELD)*%
X72875000Y57777000D03*
%TD*%
%TO.N,unconnected-(J7-NC-PadNC1)*%
%TO.C,J7*%
X1255000Y66413000D03*
D12*
%TO.N,unconnected-(J7-NC-PadNC2)*%
X5435000Y66413000D03*
%TO.N,unconnected-(J7-NC-PadNC3)*%
X5435000Y57777000D03*
D11*
%TO.N,Net-(J7-SHIELD)*%
X1255000Y57777000D03*
%TD*%
D13*
%TO.N,3.3V*%
X9804400Y79570200D03*
X81780000Y13970000D03*
X116324000Y48641000D03*
X83050000Y13970000D03*
X44704000Y48641000D03*
X14732000Y20701000D03*
X8915400Y79570200D03*
X10160000Y65270000D03*
X14732000Y72001000D03*
X81424400Y79570200D03*
X131310000Y71620000D03*
X116324000Y99941000D03*
X83050000Y65270000D03*
X123817000Y55872000D03*
X59690000Y71620000D03*
X44704000Y99941000D03*
X81780000Y65270000D03*
X59690000Y20320000D03*
X131310000Y20320000D03*
X9804400Y28270200D03*
X123817000Y4572000D03*
X10160000Y13970000D03*
X80535400Y28270200D03*
X52197000Y4572000D03*
X86352000Y20701000D03*
X11430000Y13970000D03*
X86352000Y72001000D03*
X52197000Y55872000D03*
X11430000Y65270000D03*
X8915400Y28270200D03*
X80535400Y79570200D03*
X81424400Y28270200D03*
%TO.N,GND*%
X121785000Y69715000D03*
X86225000Y12065000D03*
X127500000Y10287000D03*
X12319000Y90289000D03*
X50165000Y82415000D03*
X120515000Y32385000D03*
X121785000Y14605000D03*
X50165000Y31115000D03*
X129786000Y56634000D03*
X115435000Y12065000D03*
X131310000Y80891000D03*
X12446000Y23876000D03*
X111625000Y37465000D03*
X129786000Y25654000D03*
X111625000Y13335000D03*
X128897000Y71493000D03*
X126230000Y77970000D03*
X128897000Y20193000D03*
X50165000Y78605000D03*
X80002000Y21082000D03*
X8255000Y10795000D03*
X127500000Y65270000D03*
X86225000Y95115000D03*
X84828000Y81780000D03*
X75430000Y13970000D03*
X75430000Y58920000D03*
X61214000Y58793000D03*
X101465000Y63365000D03*
X124960000Y87368000D03*
X102735000Y88765000D03*
X12319000Y38989000D03*
X41910000Y17780000D03*
X131310000Y21590000D03*
X131437000Y94480000D03*
X33655000Y37465000D03*
X88130000Y85336000D03*
X59817000Y43180000D03*
X79875000Y10795000D03*
X120515000Y78605000D03*
X133850000Y28194000D03*
X17145000Y9525000D03*
X80002000Y72382000D03*
X103497000Y96893000D03*
X41910000Y46736000D03*
X6985000Y13970000D03*
X120515000Y84955000D03*
X41910000Y55745000D03*
X128770000Y28956000D03*
X117340000Y72890000D03*
X130040000Y59809000D03*
X20955000Y67175000D03*
X105275000Y12065000D03*
X20955000Y10795000D03*
X92575000Y10795000D03*
X125849000Y89400000D03*
X24765000Y18415000D03*
X129786000Y5334000D03*
X14605000Y95115000D03*
X34290000Y20320000D03*
X33655000Y88765000D03*
X13208000Y81780000D03*
X58420000Y65778000D03*
X50673000Y5842000D03*
X55499000Y89400000D03*
X46355000Y88765000D03*
X31877000Y96893000D03*
X104005000Y38735000D03*
X3556000Y93464000D03*
X126738000Y45339000D03*
X100830000Y69080000D03*
X28575000Y37465000D03*
X45720000Y21590000D03*
X128770000Y9398000D03*
X121785000Y88765000D03*
X38735000Y88765000D03*
X27305000Y63365000D03*
X53340000Y33020000D03*
X121785000Y31115000D03*
X126230000Y26670000D03*
X127119000Y88130000D03*
X131691000Y15367000D03*
X103497000Y99052000D03*
X132580000Y33020000D03*
X58166000Y5334000D03*
X50165000Y69715000D03*
X88130000Y34036000D03*
X58039000Y17526000D03*
X50165000Y83685000D03*
X99560000Y84320000D03*
X58420000Y36830000D03*
X50165000Y15875000D03*
X3556000Y81780000D03*
X97655000Y90035000D03*
X120515000Y33655000D03*
X43815000Y37465000D03*
X54229000Y91432000D03*
X29845000Y90035000D03*
X85590000Y75176000D03*
X24765000Y29845000D03*
X27305000Y38735000D03*
X18415000Y68191000D03*
X100830000Y17780000D03*
X23495000Y82415000D03*
X58039000Y68826000D03*
X29845000Y12065000D03*
X128135000Y36830000D03*
X126230000Y4445000D03*
X53467000Y88765000D03*
X54229000Y38100000D03*
X62611000Y43180000D03*
X121785000Y15875000D03*
X121785000Y34925000D03*
X16510000Y82542000D03*
X121785000Y17145000D03*
X56515000Y38100000D03*
X40005000Y37465000D03*
X128770000Y60698000D03*
X96385000Y15875000D03*
X55880000Y10287000D03*
X21590000Y55745000D03*
X46355000Y90035000D03*
X101592000Y93210000D03*
X8890000Y12700000D03*
X29845000Y37465000D03*
X130040000Y41910000D03*
X54229000Y88130000D03*
X23495000Y81145000D03*
X55880000Y63365000D03*
X78605000Y13970000D03*
X48895000Y84955000D03*
X105910000Y71620000D03*
X5334000Y45466000D03*
X20955000Y15875000D03*
X101465000Y12065000D03*
X102735000Y90035000D03*
X60071000Y7493000D03*
X31877000Y98290000D03*
X48895000Y87495000D03*
X29210000Y47752000D03*
X91305000Y60825000D03*
X53340000Y81145000D03*
X90035000Y9525000D03*
X41275000Y38735000D03*
X127500000Y84320000D03*
X82415000Y60190000D03*
X113530000Y4445000D03*
X95115000Y69715000D03*
X92575000Y62095000D03*
X94480000Y43180000D03*
X122293000Y57142000D03*
X108450000Y44577000D03*
X100195000Y90035000D03*
X46355000Y38735000D03*
X53340000Y36068000D03*
X132834000Y15367000D03*
X55118000Y96639000D03*
X132834000Y58793000D03*
X131691000Y58793000D03*
X76573000Y17399000D03*
X90035000Y16891000D03*
X75176000Y81780000D03*
X31877000Y41910000D03*
X98925000Y90035000D03*
X55880000Y84320000D03*
X78605000Y65270000D03*
X117975000Y88765000D03*
X113530000Y69080000D03*
X113530000Y55745000D03*
X60960000Y33020000D03*
X54610000Y4445000D03*
X18415000Y13970000D03*
X50165000Y18415000D03*
X129659000Y68826000D03*
X121785000Y36195000D03*
X31115000Y37465000D03*
X62230000Y79494000D03*
X115435000Y63365000D03*
X104005000Y37465000D03*
X95115000Y38735000D03*
X95115000Y29845000D03*
X104005000Y88765000D03*
X8890000Y60190000D03*
X51816000Y38100000D03*
X86225000Y60825000D03*
X88130000Y84066000D03*
X50165000Y19685000D03*
X95115000Y67175000D03*
X80510000Y12700000D03*
X121785000Y65905000D03*
X13970000Y23876000D03*
X124960000Y33020000D03*
X105275000Y38735000D03*
X48895000Y29845000D03*
X20955000Y69715000D03*
X48895000Y79875000D03*
X126230000Y76065000D03*
X55880000Y65270000D03*
X4318000Y4318000D03*
X95115000Y31115000D03*
X120515000Y38735000D03*
X60960000Y84320000D03*
X32385000Y37465000D03*
X87495000Y9525000D03*
X101465000Y90035000D03*
X50165000Y67175000D03*
X86225000Y43815000D03*
X50165000Y37465000D03*
X15875000Y12065000D03*
X58166000Y76954000D03*
X120515000Y83685000D03*
X51816000Y36830000D03*
X76954000Y45466000D03*
X95115000Y88765000D03*
X19685000Y9525000D03*
X29845000Y38735000D03*
X100830000Y98036000D03*
X111625000Y63365000D03*
X131691000Y7493000D03*
X41910000Y4445000D03*
X55499000Y88130000D03*
X31877000Y46990000D03*
X57277000Y20193000D03*
X121785000Y81145000D03*
X14605000Y12065000D03*
X60071000Y58793000D03*
X82542000Y23876000D03*
X54229000Y36830000D03*
X122293000Y5842000D03*
X80891000Y68953000D03*
X8255000Y62095000D03*
X4318000Y55618000D03*
X75430000Y65270000D03*
X58420000Y93210000D03*
X50165000Y36195000D03*
X124960000Y81145000D03*
X43815000Y38735000D03*
X33655000Y63365000D03*
X55118000Y47117000D03*
X92575000Y69715000D03*
X119880000Y55745000D03*
X62230000Y28194000D03*
X133850000Y66667000D03*
X95115000Y18415000D03*
X58166000Y25654000D03*
X58166000Y56634000D03*
X48895000Y86225000D03*
X50165000Y79875000D03*
X48895000Y32385000D03*
X27940000Y84320000D03*
X59817000Y94480000D03*
X58420000Y14478000D03*
X133850000Y58793000D03*
X57150000Y60698000D03*
X120515000Y31115000D03*
X95115000Y81145000D03*
X115435000Y88765000D03*
X48260000Y55745000D03*
X83939000Y90289000D03*
X48895000Y37465000D03*
X100703000Y41910000D03*
X125849000Y40132000D03*
X121785000Y87495000D03*
X127119000Y36830000D03*
X31877000Y47752000D03*
X62611000Y94480000D03*
X133850000Y79494000D03*
X120515000Y79875000D03*
X132834000Y7493000D03*
X48895000Y31115000D03*
X126230000Y72255000D03*
X105275000Y37465000D03*
X23495000Y90035000D03*
X95115000Y90035000D03*
X62230000Y7493000D03*
X96385000Y29845000D03*
X123436000Y38100000D03*
X26035000Y38735000D03*
X105910000Y98036000D03*
X113530000Y98036000D03*
X29083000Y93210000D03*
X82415000Y8890000D03*
X80510000Y60190000D03*
X18415000Y39624000D03*
X111625000Y64635000D03*
X100195000Y37465000D03*
X8382000Y21082000D03*
X51816000Y89400000D03*
X90035000Y39624000D03*
X61214000Y7493000D03*
X126230000Y24765000D03*
X48895000Y88765000D03*
X58420000Y59809000D03*
X41910000Y33020000D03*
X29210000Y17780000D03*
X23495000Y15875000D03*
X112895000Y90035000D03*
X29210000Y46736000D03*
X55880000Y13970000D03*
X55880000Y33020000D03*
X80891000Y17653000D03*
X121785000Y70985000D03*
X8001000Y2540000D03*
X2540000Y12319000D03*
X113530000Y17780000D03*
X127119000Y38100000D03*
X14605000Y63365000D03*
X53467000Y37465000D03*
X127500000Y13970000D03*
X130040000Y65778000D03*
X11430000Y49530000D03*
X100830000Y96893000D03*
X126738000Y43561000D03*
X91305000Y18415000D03*
X79621000Y2540000D03*
X117975000Y63365000D03*
X10922000Y23876000D03*
X126230000Y55745000D03*
X100830000Y99052000D03*
X30988000Y41910000D03*
X124960000Y29845000D03*
X102735000Y38735000D03*
X48895000Y33655000D03*
X14605000Y43815000D03*
X132834000Y43180000D03*
X40005000Y64635000D03*
X90035000Y63365000D03*
X16510000Y32766000D03*
X58242200Y31673800D03*
X87495000Y12065000D03*
X27305000Y37465000D03*
X50165000Y65905000D03*
X10795000Y64000000D03*
X16637000Y22606000D03*
X127500000Y63365000D03*
X111625000Y88765000D03*
X131437000Y43180000D03*
X101592000Y41910000D03*
X23495000Y67175000D03*
X126738000Y98417000D03*
X113530000Y33020000D03*
X23495000Y31115000D03*
X55499000Y36830000D03*
X52832000Y39370000D03*
X8890000Y64000000D03*
X28575000Y88765000D03*
X54229000Y89400000D03*
X48895000Y36195000D03*
X126230000Y28956000D03*
X48895000Y90035000D03*
X56515000Y92702000D03*
X54610000Y24765000D03*
X121785000Y79875000D03*
X125849000Y38100000D03*
X103370000Y4445000D03*
X80510000Y64000000D03*
X23495000Y18415000D03*
X27305000Y88765000D03*
X61214000Y15367000D03*
X83050000Y100830000D03*
X130040000Y93210000D03*
X98925000Y38735000D03*
X10795000Y60190000D03*
X46355000Y37465000D03*
X15875000Y63365000D03*
X33655000Y38735000D03*
X94480000Y94480000D03*
X16510000Y31242000D03*
X50165000Y13335000D03*
X17145000Y63365000D03*
X88257000Y22606000D03*
X48895000Y28575000D03*
X29210000Y99052000D03*
X54610000Y28956000D03*
X102608000Y93210000D03*
X3810000Y65270000D03*
X50165000Y70985000D03*
X32385000Y88765000D03*
X50165000Y29845000D03*
X126738000Y48895000D03*
X50165000Y81145000D03*
X120515000Y86225000D03*
X29972000Y41910000D03*
X40005000Y63365000D03*
X23495000Y37465000D03*
X23495000Y38735000D03*
X101465000Y37465000D03*
X123436000Y86225000D03*
X21590000Y4445000D03*
X131310000Y29591000D03*
X29845000Y88765000D03*
X32385000Y38735000D03*
X31877000Y99052000D03*
X128135000Y88130000D03*
X98925000Y37465000D03*
X53340000Y29845000D03*
X123436000Y88130000D03*
X34290000Y46736000D03*
X3556000Y30480000D03*
X48895000Y34925000D03*
X82415000Y64000000D03*
X76954000Y96766000D03*
X20955000Y13970000D03*
X86225000Y63365000D03*
X75176000Y93464000D03*
X29210000Y98036000D03*
X60071000Y15367000D03*
X58242200Y82973800D03*
X121785000Y18415000D03*
X28575000Y90035000D03*
X121785000Y27305000D03*
X34290000Y71620000D03*
X50165000Y86225000D03*
X128770000Y80256000D03*
X95115000Y37465000D03*
X41275000Y90035000D03*
X124960000Y84320000D03*
X127500000Y12065000D03*
X27940000Y33020000D03*
X79875000Y62095000D03*
X18415000Y60825000D03*
X50673000Y57142000D03*
X117975000Y38735000D03*
X127500000Y33020000D03*
X126230000Y74160000D03*
X95115000Y82415000D03*
X4953000Y68699000D03*
X126230000Y22860000D03*
X40005000Y12065000D03*
X124452000Y39370000D03*
X82542000Y75176000D03*
X6985000Y7620000D03*
X121785000Y83685000D03*
X15875000Y9525000D03*
X40005000Y13335000D03*
X36830000Y95877000D03*
X53340000Y84320000D03*
X15875000Y60825000D03*
X120515000Y81145000D03*
X14605000Y9525000D03*
X108450000Y95877000D03*
X55118000Y48895000D03*
X41910000Y98036000D03*
X41910000Y84320000D03*
X90035000Y12065000D03*
X95115000Y15875000D03*
X51816000Y34925000D03*
X50165000Y14605000D03*
X98925000Y12065000D03*
X59690000Y72890000D03*
X100830000Y45593000D03*
X54229000Y40132000D03*
X6985000Y65270000D03*
X54610000Y80256000D03*
X30988000Y93210000D03*
X121785000Y28575000D03*
X98925000Y88765000D03*
X48895000Y78605000D03*
X117340000Y21590000D03*
X78605000Y58920000D03*
X88765000Y63365000D03*
X79621000Y53840000D03*
X74160000Y12319000D03*
X132834000Y94480000D03*
X121785000Y64635000D03*
X31115000Y90035000D03*
X123436000Y36830000D03*
X103497000Y46990000D03*
X83939000Y38989000D03*
X29845000Y63365000D03*
X55118000Y100195000D03*
X58420000Y88130000D03*
X103497000Y93210000D03*
X46355000Y63365000D03*
X75176000Y30480000D03*
X130040000Y36830000D03*
X55499000Y38100000D03*
X125087000Y88765000D03*
X20955000Y65270000D03*
X121785000Y82415000D03*
X50165000Y34925000D03*
X56515000Y88130000D03*
X61214000Y43180000D03*
X48895000Y83685000D03*
X103497000Y98290000D03*
X120515000Y27305000D03*
X101465000Y88765000D03*
X92575000Y67175000D03*
X3810000Y58920000D03*
X62230000Y66667000D03*
X18415000Y12065000D03*
X57277000Y71493000D03*
X54610000Y16510000D03*
X48895000Y81145000D03*
X133850000Y7493000D03*
X16510000Y85336000D03*
X96385000Y18415000D03*
X105910000Y46736000D03*
X98925000Y63365000D03*
X55118000Y43561000D03*
X103497000Y47752000D03*
X50165000Y27305000D03*
X121785000Y19685000D03*
X105275000Y90035000D03*
X54610000Y76065000D03*
X110355000Y88765000D03*
X125849000Y36830000D03*
X27305000Y12065000D03*
X55880000Y12065000D03*
X75938000Y55618000D03*
X62230000Y58793000D03*
X12446000Y75176000D03*
X90035000Y90924000D03*
X85590000Y23876000D03*
X28575000Y38735000D03*
X117975000Y90035000D03*
X84066000Y75176000D03*
X130040000Y88130000D03*
X87495000Y60825000D03*
X128135000Y38100000D03*
X126738000Y94861000D03*
X22860000Y43180000D03*
X31115000Y88765000D03*
X100830000Y46736000D03*
X83050000Y49530000D03*
X119880000Y4445000D03*
X100703000Y93210000D03*
X117975000Y37465000D03*
X120515000Y36195000D03*
X88765000Y12065000D03*
X93210000Y55745000D03*
X56515000Y41402000D03*
X54610000Y22860000D03*
X131691000Y66667000D03*
X75430000Y7620000D03*
X29972000Y93210000D03*
X101465000Y38735000D03*
X80510000Y8890000D03*
X121785000Y37465000D03*
X24765000Y15875000D03*
X87495000Y63365000D03*
X16637000Y73906000D03*
X29210000Y69080000D03*
X127500000Y61587000D03*
X120515000Y88765000D03*
X129786000Y76954000D03*
X120515000Y37465000D03*
X48895000Y38735000D03*
X75176000Y42164000D03*
X120515000Y28575000D03*
X92575000Y15875000D03*
X10922000Y75176000D03*
X88257000Y73906000D03*
X92575000Y12065000D03*
X103370000Y55745000D03*
X100195000Y88765000D03*
X96385000Y81145000D03*
X110355000Y37465000D03*
X58420000Y8509000D03*
X8382000Y72382000D03*
X121785000Y78605000D03*
X91305000Y9525000D03*
X120515000Y90035000D03*
X18415000Y65270000D03*
X43815000Y88765000D03*
X2540000Y63619000D03*
X23495000Y69715000D03*
X17145000Y12065000D03*
X18415000Y9525000D03*
X54610000Y74160000D03*
X19685000Y60825000D03*
X120515000Y82415000D03*
X55118000Y45339000D03*
X88130000Y82542000D03*
X31877000Y93210000D03*
X97655000Y38735000D03*
X16510000Y34036000D03*
X31877000Y45593000D03*
X91305000Y69715000D03*
X24765000Y69715000D03*
X121785000Y68445000D03*
X29210000Y45593000D03*
X59690000Y29591000D03*
X50165000Y87495000D03*
X8890000Y8890000D03*
X3810000Y7620000D03*
X23495000Y29845000D03*
X120515000Y34925000D03*
X51816000Y88130000D03*
X18415000Y16891000D03*
X103497000Y41910000D03*
X92575000Y63365000D03*
X123436000Y34925000D03*
X20955000Y12065000D03*
X20955000Y63365000D03*
X102735000Y37465000D03*
X126738000Y96639000D03*
X62230000Y15367000D03*
X86225000Y9525000D03*
X6985000Y58920000D03*
X5334000Y96766000D03*
X134231000Y43180000D03*
X125087000Y37465000D03*
X128135000Y89400000D03*
X115435000Y90035000D03*
X125849000Y88130000D03*
X121785000Y67175000D03*
X102608000Y41910000D03*
X31750000Y55745000D03*
X126230000Y20955000D03*
X125849000Y91432000D03*
X90035000Y13970000D03*
X22860000Y94480000D03*
X48895000Y82415000D03*
X132834000Y66667000D03*
X31115000Y38735000D03*
X92575000Y13970000D03*
X55118000Y94861000D03*
X129862200Y82973800D03*
X126738000Y100195000D03*
X126738000Y47117000D03*
X11430000Y100830000D03*
X74160000Y63619000D03*
X51816000Y86225000D03*
X117975000Y12065000D03*
X27305000Y90035000D03*
X92575000Y65270000D03*
X132580000Y84320000D03*
X57150000Y28956000D03*
X131310000Y72890000D03*
X88130000Y31242000D03*
X60071000Y66667000D03*
X124452000Y90670000D03*
X56515000Y89400000D03*
X54610000Y55745000D03*
X29083000Y41910000D03*
X88765000Y9525000D03*
X32385000Y90035000D03*
X93210000Y4445000D03*
X84066000Y23876000D03*
X53340000Y87368000D03*
X46355000Y12065000D03*
X13970000Y75176000D03*
X120515000Y87495000D03*
X103497000Y45593000D03*
X54610000Y67810000D03*
X29210000Y96893000D03*
X52832000Y90670000D03*
X4953000Y17399000D03*
X129862200Y31673800D03*
X90035000Y60825000D03*
X115435000Y37465000D03*
X19685000Y18415000D03*
X20955000Y18415000D03*
X61214000Y94480000D03*
X56515000Y36830000D03*
X113530000Y46736000D03*
X82415000Y12700000D03*
X112895000Y38735000D03*
X24765000Y81145000D03*
X130040000Y14478000D03*
X121785000Y32385000D03*
X54610000Y26670000D03*
X43815000Y90035000D03*
X54610000Y72255000D03*
X105275000Y88765000D03*
X54610000Y77970000D03*
X100830000Y47752000D03*
X121785000Y29845000D03*
X13208000Y30480000D03*
X126230000Y80256000D03*
X113530000Y84320000D03*
X96385000Y67175000D03*
X126230000Y67810000D03*
X100195000Y38735000D03*
X43815000Y12065000D03*
X121785000Y86225000D03*
X23495000Y88765000D03*
X24765000Y67175000D03*
X33655000Y12065000D03*
X16510000Y84066000D03*
X40005000Y88765000D03*
X123436000Y89400000D03*
X90035000Y65270000D03*
X104005000Y90035000D03*
X17145000Y60825000D03*
X134231000Y94480000D03*
X50165000Y68445000D03*
X115435000Y38735000D03*
X76573000Y68699000D03*
X105275000Y63365000D03*
X92575000Y18415000D03*
X59690000Y21590000D03*
X33655000Y90035000D03*
X54610000Y20955000D03*
X50165000Y17145000D03*
X61214000Y66667000D03*
X36830000Y44577000D03*
X50165000Y88765000D03*
X48895000Y27305000D03*
X50165000Y28575000D03*
X19685000Y69715000D03*
X9271000Y17653000D03*
X50165000Y64635000D03*
X10795000Y8890000D03*
X8001000Y53840000D03*
X57150000Y80256000D03*
X18415000Y90924000D03*
X120515000Y29845000D03*
X96385000Y69715000D03*
X59690000Y80891000D03*
X78605000Y7620000D03*
X124960000Y36068000D03*
X75938000Y4318000D03*
X121785000Y13335000D03*
X14605000Y60825000D03*
X41910000Y69080000D03*
X133850000Y15367000D03*
X88130000Y32766000D03*
X48260000Y4445000D03*
X55880000Y61587000D03*
X88765000Y60825000D03*
X130040000Y8509000D03*
X128135000Y41402000D03*
X90035000Y68191000D03*
X128135000Y92702000D03*
X20955000Y62095000D03*
X31750000Y4445000D03*
X57150000Y9398000D03*
X105910000Y20320000D03*
X43815000Y63365000D03*
X111625000Y12065000D03*
X45720000Y72890000D03*
X3556000Y42164000D03*
X9271000Y68953000D03*
X50165000Y32385000D03*
X84828000Y30480000D03*
X99560000Y33020000D03*
X18415000Y63365000D03*
X55118000Y98417000D03*
X3810000Y13970000D03*
X26035000Y90035000D03*
X10795000Y12700000D03*
X129659000Y17526000D03*
X38735000Y37465000D03*
X126230000Y16510000D03*
X127119000Y89400000D03*
X58420000Y41910000D03*
X34290000Y98036000D03*
%TO.N,1.8V*%
X52197000Y7493000D03*
X52197000Y58793000D03*
X57150000Y70350000D03*
X57150000Y19050000D03*
X123817000Y7493000D03*
X128770000Y70350000D03*
X123817000Y58793000D03*
X128770000Y19050000D03*
%TO.N,~{RESET}*%
X102989000Y75684000D03*
X21590000Y75430000D03*
X31369000Y75684000D03*
X31369000Y24384000D03*
X102989000Y24384000D03*
X93210000Y75430000D03*
X93210000Y24130000D03*
X21590000Y24130000D03*
%TO.N,Net-(D16-A2)*%
X132834000Y11430000D03*
X61214000Y11430000D03*
X132834000Y62730000D03*
X61214000Y62730000D03*
%TO.N,5V*%
X78097000Y76192000D03*
X21209000Y44577000D03*
X6477000Y24130000D03*
X78097000Y24892000D03*
X6477000Y75430000D03*
X91940000Y95877000D03*
X21209000Y95877000D03*
X92829000Y44577000D03*
X78097000Y24130000D03*
X6477000Y76192000D03*
X78097000Y75430000D03*
X20320000Y44577000D03*
X92829000Y95877000D03*
X91940000Y44577000D03*
X20320000Y95877000D03*
X6477000Y24892000D03*
%TO.N,SD_DATA*%
X46990000Y61460000D03*
X118610000Y10160000D03*
X86733000Y40132000D03*
X86733000Y91432000D03*
X46990000Y10160000D03*
X15113000Y40132000D03*
X15113000Y91432000D03*
X118610000Y61460000D03*
%TO.N,SD_CLK*%
X119880000Y61460000D03*
X48260000Y10160000D03*
X48260000Y61460000D03*
X119880000Y10160000D03*
X15659100Y89273000D03*
X15659100Y37973000D03*
X87279100Y89273000D03*
X87279100Y37973000D03*
%TO.N,SD_CMD*%
X49530000Y10160000D03*
X16040100Y86987000D03*
X16040100Y35687000D03*
X49530000Y61460000D03*
X121150000Y61460000D03*
X121150000Y10160000D03*
X87660100Y86987000D03*
X87660100Y35687000D03*
%TO.N,PMIC_ON_REQ*%
X107180000Y31115000D03*
X35560000Y31115000D03*
X24765000Y82415000D03*
X24765000Y31115000D03*
X35560000Y82415000D03*
X96385000Y82415000D03*
X107180000Y82415000D03*
X96385000Y31115000D03*
%TO.N,LOG_LED*%
X93845000Y10795000D03*
X93845000Y62095000D03*
X22225000Y62095000D03*
X22225000Y10795000D03*
%TO.N,RDY*%
X33020000Y25400000D03*
X104640000Y76700000D03*
X104640000Y25400000D03*
X21590000Y76700000D03*
X21590000Y25400000D03*
X93210000Y25400000D03*
X33020000Y76700000D03*
X93210000Y76700000D03*
%TO.N,PVT_LED*%
X108450000Y98544000D03*
X95115000Y79875000D03*
X95115000Y28575000D03*
X108450000Y47244000D03*
X106545000Y81526000D03*
X106545000Y30226000D03*
X34925000Y30226000D03*
X23495000Y28575000D03*
X23495000Y79875000D03*
X34925000Y81526000D03*
X36830000Y47244000D03*
X36830000Y98544000D03*
%TO.N,PPS*%
X49530000Y57904000D03*
X116324000Y97909000D03*
X116324000Y46609000D03*
X49530000Y6604000D03*
X44704000Y97909000D03*
X44704000Y46609000D03*
X121150000Y6604000D03*
X121150000Y57904000D03*
%TO.N,RTK_LED*%
X108450000Y15875000D03*
X36830000Y67175000D03*
X113530000Y92829000D03*
X113530000Y41529000D03*
X117340000Y57523000D03*
X41910000Y41529000D03*
X45720000Y57523000D03*
X45720000Y6223000D03*
X117340000Y6223000D03*
X108450000Y67175000D03*
X41910000Y92829000D03*
X36830000Y15875000D03*
%TO.N,GP1*%
X45085000Y15240000D03*
X116705000Y15240000D03*
X45085000Y66540000D03*
X116705000Y66540000D03*
%TO.N,TX4*%
X27940000Y67175000D03*
X27940000Y15875000D03*
X99560000Y67175000D03*
X99560000Y15875000D03*
X108450000Y55618000D03*
X36830000Y4318000D03*
X36830000Y55618000D03*
X108450000Y4318000D03*
%TO.N,RX4*%
X35560000Y57904000D03*
X98290000Y67175000D03*
X26670000Y15875000D03*
X107180000Y57904000D03*
X26670000Y67175000D03*
X98290000Y15875000D03*
X35560000Y6604000D03*
X107180000Y6604000D03*
%TO.N,GP2*%
X107180000Y15875000D03*
X35560000Y67175000D03*
X44450000Y5207000D03*
X35560000Y15875000D03*
X107180000Y67175000D03*
X116070000Y56507000D03*
X116070000Y5207000D03*
X44450000Y56507000D03*
%TO.N,RTS2*%
X102100000Y9271000D03*
X30480000Y60571000D03*
X102100000Y60571000D03*
X30480000Y9271000D03*
%TO.N,TX2*%
X31750000Y61460000D03*
X103370000Y61460000D03*
X31750000Y10160000D03*
X103370000Y10160000D03*
%TO.N,TX1*%
X98290000Y10160000D03*
X26670000Y61460000D03*
X26670000Y10160000D03*
X98290000Y61460000D03*
%TO.N,RTS1*%
X25400000Y9271000D03*
X25400000Y60571000D03*
X97020000Y60571000D03*
X97020000Y9271000D03*
%TO.N,TX3*%
X79494000Y73398000D03*
X7874000Y73398000D03*
X108450000Y61460000D03*
X36830000Y61460000D03*
X108450000Y10160000D03*
X79494000Y22098000D03*
X7874000Y22098000D03*
X36830000Y10160000D03*
%TO.N,CTS3*%
X85336000Y70985000D03*
X13716000Y19685000D03*
X3556000Y20955000D03*
X75176000Y20955000D03*
X38100000Y61460000D03*
X38100000Y10160000D03*
X3556000Y72255000D03*
X13716000Y70985000D03*
X109720000Y10160000D03*
X75176000Y72255000D03*
X109720000Y61460000D03*
X85336000Y19685000D03*
%TO.N,RTS3*%
X74160000Y19050000D03*
X35560000Y61460000D03*
X107180000Y61460000D03*
X74160000Y70350000D03*
X35560000Y10160000D03*
X107180000Y10160000D03*
X2540000Y70350000D03*
X12357100Y72255000D03*
X83977100Y20955000D03*
X83977100Y72255000D03*
X12357100Y20955000D03*
X2540000Y19050000D03*
%TO.N,RX3*%
X34290000Y61460000D03*
X105910000Y10160000D03*
X75176000Y74668000D03*
X83431000Y22225000D03*
X11811000Y22225000D03*
X34290000Y10160000D03*
X83431000Y73525000D03*
X105910000Y61460000D03*
X75176000Y23368000D03*
X3556000Y23368000D03*
X3556000Y74668000D03*
X11811000Y73525000D03*
%TO.N,LOG_BTN*%
X118483000Y4445000D03*
X46863000Y55745000D03*
X105910000Y15875000D03*
X46863000Y4445000D03*
X36791900Y85463000D03*
X105910000Y67175000D03*
X36791900Y34163000D03*
X108411900Y85463000D03*
X118483000Y55745000D03*
X34290000Y67175000D03*
X90441400Y43834567D03*
X18821400Y95134567D03*
X90441400Y95134567D03*
X108411900Y34163000D03*
X18821400Y43834567D03*
X34290000Y15875000D03*
%TO.N,Net-(J5-Pin_1)*%
X74414000Y24765000D03*
X75176000Y24765000D03*
X75176000Y76065000D03*
X3556000Y24765000D03*
X2794000Y76065000D03*
X2794000Y24765000D03*
X74414000Y76065000D03*
X3556000Y76065000D03*
%TO.N,Net-(D17-I{slash}O1)*%
X13462000Y11557000D03*
X85082000Y11557000D03*
X85082000Y62857000D03*
X13462000Y62857000D03*
%TO.N,Net-(D17-I{slash}O2)*%
X13462000Y10033000D03*
X13462000Y61333000D03*
X85082000Y61333000D03*
X85082000Y10033000D03*
%TO.N,VUSB*%
X78605000Y59682000D03*
X6985000Y59682000D03*
X6985000Y64508000D03*
X21590000Y71620000D03*
X78605000Y64508000D03*
X82415000Y62095000D03*
X10795000Y62095000D03*
X93210000Y71620000D03*
X10795000Y10795000D03*
X78605000Y8382000D03*
X21590000Y20320000D03*
X6985000Y13208000D03*
X93210000Y20320000D03*
X78605000Y13208000D03*
X82415000Y10795000D03*
X6985000Y8382000D03*
%TO.N,ON_OFF*%
X107688000Y74668000D03*
X107688000Y23368000D03*
X23495000Y74795000D03*
X23495000Y23495000D03*
X36068000Y74668000D03*
X95115000Y23495000D03*
X95115000Y74795000D03*
X36068000Y23368000D03*
%TO.N,VBATT*%
X95115000Y20955000D03*
X98925000Y69969000D03*
X95115000Y72255000D03*
X23495000Y72255000D03*
X23495000Y20955000D03*
X98925000Y18669000D03*
X27305000Y18669000D03*
X27305000Y69969000D03*
%TO.N,Net-(LOG1-A)*%
X48133000Y95877000D03*
X119753000Y44577000D03*
X48133000Y44577000D03*
X119753000Y95877000D03*
%TO.N,Net-(PPS1-A)*%
X119753000Y46609000D03*
X119753000Y97909000D03*
X48133000Y97909000D03*
X48133000Y46609000D03*
%TO.N,Net-(PVT1-A)*%
X119753000Y93845000D03*
X48133000Y42545000D03*
X119753000Y42545000D03*
X48133000Y93845000D03*
%TO.N,Net-(PWR1-A)*%
X119753000Y48641000D03*
X119753000Y99941000D03*
X48133000Y99941000D03*
X48133000Y48641000D03*
%TO.N,Net-(U1-EVENTA)*%
X123436000Y63365000D03*
X51816000Y17780000D03*
X51816000Y12065000D03*
X51816000Y63365000D03*
X51816000Y69080000D03*
X123436000Y12065000D03*
X123436000Y69080000D03*
X123436000Y17780000D03*
%TO.N,Net-(U1-EVENTB)*%
X52451000Y19050000D03*
X52451000Y13335000D03*
X124071000Y19050000D03*
X124071000Y64635000D03*
X52451000Y70350000D03*
X124071000Y70350000D03*
X52451000Y64635000D03*
X124071000Y13335000D03*
%TO.N,Net-(RTK1-A)*%
X120134000Y41529000D03*
X120134000Y92829000D03*
X48514000Y41529000D03*
X48514000Y92829000D03*
%TO.N,REF_EXT*%
X132580000Y81780000D03*
X60960000Y30480000D03*
X132580000Y30480000D03*
X60960000Y81780000D03*
%TO.N,2V8_OUT*%
X126484000Y34544000D03*
X54864000Y85844000D03*
X110990000Y91940000D03*
X39370000Y40640000D03*
X110990000Y40640000D03*
X54864000Y34544000D03*
X39370000Y91940000D03*
X126484000Y85844000D03*
%TO.N,2V8_IN*%
X57150000Y85844000D03*
X128770000Y85844000D03*
X128770000Y34544000D03*
X109720000Y40640000D03*
X109720000Y91940000D03*
X38100000Y91940000D03*
X57150000Y34544000D03*
X38100000Y40640000D03*
%TO.N,Net-(U2-2B)*%
X50800000Y9017000D03*
X122420000Y60317000D03*
X50800000Y60317000D03*
X122420000Y9017000D03*
%TO.N,PPS_1V8*%
X51181000Y59428000D03*
X123309000Y71620000D03*
X51181000Y8128000D03*
X51689000Y71620000D03*
X123309000Y20320000D03*
X51689000Y20320000D03*
X122801000Y8128000D03*
X122801000Y59428000D03*
%TD*%
D14*
%TO.N,3.3V*%
X12700000Y1270000D02*
X14605000Y3175000D01*
X86225000Y3175000D02*
X93972000Y3175000D01*
X11430000Y13970000D02*
X10160000Y13970000D01*
X81526000Y13716000D02*
X81526000Y4064000D01*
X50800000Y54475000D02*
X52197000Y55872000D01*
X81780000Y13970000D02*
X81526000Y13716000D01*
X54610000Y15240000D02*
X59690000Y20320000D01*
X14605000Y3175000D02*
X22352000Y3175000D01*
X93972000Y3175000D02*
X122420000Y3175000D01*
X9906000Y55364000D02*
X12700000Y52570000D01*
X83050000Y65270000D02*
X81780000Y65270000D01*
X14605000Y54475000D02*
X22352000Y54475000D01*
X123817000Y4572000D02*
X126230000Y6985000D01*
X10160000Y13970000D02*
X9906000Y13716000D01*
X50800000Y3175000D02*
X52197000Y4572000D01*
X81526000Y65016000D02*
X81526000Y55364000D01*
X22352000Y54475000D02*
X50800000Y54475000D01*
X11430000Y65270000D02*
X10160000Y65270000D01*
X10160000Y65270000D02*
X9906000Y65016000D01*
X126230000Y6985000D02*
X126230000Y15240000D01*
X52197000Y4572000D02*
X54610000Y6985000D01*
X81526000Y55364000D02*
X84320000Y52570000D01*
X81526000Y4064000D02*
X84320000Y1270000D01*
X12700000Y52570000D02*
X14605000Y54475000D01*
X22352000Y3175000D02*
X50800000Y3175000D01*
X54610000Y58285000D02*
X54610000Y66540000D01*
X9906000Y65016000D02*
X9906000Y55364000D01*
X81780000Y65270000D02*
X81526000Y65016000D01*
X122420000Y54475000D02*
X123817000Y55872000D01*
X54610000Y66540000D02*
X59690000Y71620000D01*
X84320000Y1270000D02*
X86225000Y3175000D01*
X126230000Y15240000D02*
X131310000Y20320000D01*
X84320000Y52570000D02*
X86225000Y54475000D01*
X54610000Y6985000D02*
X54610000Y15240000D01*
X126230000Y58285000D02*
X126230000Y66540000D01*
X9906000Y4064000D02*
X12700000Y1270000D01*
X126230000Y66540000D02*
X131310000Y71620000D01*
X9906000Y13716000D02*
X9906000Y4064000D01*
X122420000Y3175000D02*
X123817000Y4572000D01*
X93972000Y54475000D02*
X122420000Y54475000D01*
X83050000Y13970000D02*
X81780000Y13970000D01*
X123817000Y55872000D02*
X126230000Y58285000D01*
X86225000Y54475000D02*
X93972000Y54475000D01*
X52197000Y55872000D02*
X54610000Y58285000D01*
D15*
%TO.N,1.8V*%
X53594000Y16891000D02*
X53594000Y12700000D01*
X53594000Y68191000D02*
X53594000Y64000000D01*
X125722000Y17399000D02*
X125214000Y16891000D01*
X57150000Y19050000D02*
X55753000Y19050000D01*
X127373000Y70350000D02*
X125722000Y68699000D01*
X125722000Y68699000D02*
X125214000Y68191000D01*
X53594000Y8890000D02*
X52197000Y7493000D01*
X55753000Y70350000D02*
X54102000Y68699000D01*
X53594000Y60190000D02*
X52197000Y58793000D01*
X54102000Y17399000D02*
X53594000Y16891000D01*
X128770000Y70350000D02*
X127373000Y70350000D01*
X125214000Y12700000D02*
X125214000Y8890000D01*
X125214000Y16891000D02*
X125214000Y12700000D01*
X125214000Y60190000D02*
X123817000Y58793000D01*
X125214000Y68191000D02*
X125214000Y64000000D01*
X125214000Y64000000D02*
X125214000Y60190000D01*
X125214000Y8890000D02*
X123817000Y7493000D01*
X53594000Y64000000D02*
X53594000Y60190000D01*
X128770000Y19050000D02*
X127373000Y19050000D01*
X127373000Y19050000D02*
X125722000Y17399000D01*
X54102000Y68699000D02*
X53594000Y68191000D01*
X53594000Y12700000D02*
X53594000Y8890000D01*
X57150000Y70350000D02*
X55753000Y70350000D01*
X55753000Y19050000D02*
X54102000Y17399000D01*
D16*
%TO.N,~{RESET}*%
X32512000Y92194000D02*
X32512000Y97147000D01*
X32170100Y46188900D02*
X31281100Y46188900D01*
X31281100Y46188900D02*
X30480000Y46990000D01*
X102100000Y98290000D02*
X102100000Y100830000D01*
X31750000Y91432000D02*
X32512000Y92194000D01*
X104132000Y45847000D02*
X103790100Y46188900D01*
X103370000Y40132000D02*
X104132000Y40894000D01*
X104132000Y97147000D02*
X103790100Y97488900D01*
X31750000Y24765000D02*
X31750000Y40132000D01*
X31750000Y40132000D02*
X32512000Y40894000D01*
X104132000Y92194000D02*
X104132000Y97147000D01*
X102989000Y75684000D02*
X103370000Y76065000D01*
X103790100Y46188900D02*
X102901100Y46188900D01*
X102901100Y97488900D02*
X102100000Y98290000D01*
X31369000Y75684000D02*
X31750000Y76065000D01*
X103370000Y76065000D02*
X103370000Y91432000D01*
X103790100Y97488900D02*
X102901100Y97488900D01*
X102989000Y24384000D02*
X103370000Y24765000D01*
X31281100Y97488900D02*
X30480000Y98290000D01*
X102100000Y46990000D02*
X102100000Y49530000D01*
X31750000Y76065000D02*
X31750000Y91432000D01*
X102901100Y46188900D02*
X102100000Y46990000D01*
X32512000Y97147000D02*
X32170100Y97488900D01*
X30480000Y46990000D02*
X30480000Y49530000D01*
X104132000Y40894000D02*
X104132000Y45847000D01*
X32512000Y40894000D02*
X32512000Y45847000D01*
X32512000Y45847000D02*
X32170100Y46188900D01*
X32170100Y97488900D02*
X31281100Y97488900D01*
X31369000Y24384000D02*
X31750000Y24765000D01*
X103370000Y91432000D02*
X104132000Y92194000D01*
X103370000Y24765000D02*
X103370000Y40132000D01*
X30480000Y98290000D02*
X30480000Y100830000D01*
D14*
%TO.N,5V*%
X20320000Y44577000D02*
X21209000Y44577000D01*
X6477000Y24892000D02*
X6477000Y43180000D01*
X80002000Y96385000D02*
X91432000Y96385000D01*
X6477000Y94480000D02*
X8382000Y96385000D01*
X78097000Y24892000D02*
X78097000Y43180000D01*
X8382000Y45085000D02*
X19812000Y45085000D01*
X8382000Y96385000D02*
X19812000Y96385000D01*
X91940000Y44577000D02*
X92829000Y44577000D01*
X78097000Y94480000D02*
X80002000Y96385000D01*
X78097000Y43180000D02*
X80002000Y45085000D01*
X19812000Y96385000D02*
X20320000Y95877000D01*
X91940000Y95877000D02*
X92829000Y95877000D01*
X78097000Y76192000D02*
X78097000Y94480000D01*
X78097000Y24130000D02*
X78097000Y24892000D01*
X6477000Y24130000D02*
X6477000Y24892000D01*
X91432000Y96385000D02*
X91940000Y95877000D01*
X6477000Y43180000D02*
X8382000Y45085000D01*
X19812000Y45085000D02*
X20320000Y44577000D01*
X6477000Y76192000D02*
X6477000Y94480000D01*
X78097000Y75430000D02*
X78097000Y76192000D01*
X91432000Y45085000D02*
X91940000Y44577000D01*
X6477000Y75430000D02*
X6477000Y76192000D01*
X20320000Y95877000D02*
X21209000Y95877000D01*
X80002000Y45085000D02*
X91432000Y45085000D01*
D16*
%TO.N,PMIC_ON_REQ*%
X107180000Y41402000D02*
X112260000Y46482000D01*
X107180000Y31115000D02*
X107180000Y41402000D01*
X40640000Y46482000D02*
X40640000Y49530000D01*
X112260000Y46482000D02*
X112260000Y49530000D01*
X107180000Y92702000D02*
X112260000Y97782000D01*
X35560000Y41402000D02*
X40640000Y46482000D01*
X35560000Y82415000D02*
X35560000Y92702000D01*
X107180000Y82415000D02*
X107180000Y92702000D01*
X112260000Y97782000D02*
X112260000Y100830000D01*
X40640000Y97782000D02*
X40640000Y100830000D01*
X35560000Y92702000D02*
X40640000Y97782000D01*
X35560000Y31115000D02*
X35560000Y41402000D01*
%TO.N,LOG_LED*%
X105910000Y75811000D02*
X105910000Y97020000D01*
X22225000Y62095000D02*
X25400000Y65270000D01*
X97020000Y15621000D02*
X105910000Y24511000D01*
X25400000Y65270000D02*
X25400000Y66921000D01*
X25400000Y13970000D02*
X25400000Y15621000D01*
X34290000Y24511000D02*
X34290000Y45720000D01*
X105910000Y45720000D02*
X109720000Y49530000D01*
X22225000Y10795000D02*
X25400000Y13970000D01*
X93845000Y62095000D02*
X97020000Y65270000D01*
X34290000Y45720000D02*
X38100000Y49530000D01*
X97020000Y66921000D02*
X105910000Y75811000D01*
X34290000Y75811000D02*
X34290000Y97020000D01*
X34290000Y97020000D02*
X38100000Y100830000D01*
X105910000Y97020000D02*
X109720000Y100830000D01*
X25400000Y15621000D02*
X34290000Y24511000D01*
X25400000Y66921000D02*
X34290000Y75811000D01*
X97020000Y65270000D02*
X97020000Y66921000D01*
X105910000Y24511000D02*
X105910000Y45720000D01*
X97020000Y13970000D02*
X97020000Y15621000D01*
X93845000Y10795000D02*
X97020000Y13970000D01*
%TO.N,RDY*%
X104640000Y25400000D02*
X104640000Y49530000D01*
X33020000Y25400000D02*
X33020000Y49530000D01*
X33020000Y76700000D02*
X33020000Y100830000D01*
X104640000Y76700000D02*
X104640000Y100830000D01*
%TO.N,PVT_LED*%
X106545000Y41656000D02*
X106545000Y45339000D01*
X106545000Y92956000D02*
X106545000Y96639000D01*
X34925000Y81526000D02*
X34925000Y92956000D01*
X34925000Y96639000D02*
X36830000Y98544000D01*
X34925000Y41656000D02*
X34925000Y45339000D01*
X106545000Y30226000D02*
X106545000Y41656000D01*
X34925000Y45339000D02*
X36830000Y47244000D01*
X106545000Y81526000D02*
X106545000Y92956000D01*
X106545000Y45339000D02*
X108450000Y47244000D01*
X106545000Y96639000D02*
X108450000Y98544000D01*
X34925000Y30226000D02*
X34925000Y41656000D01*
X34925000Y92956000D02*
X34925000Y96639000D01*
%TO.N,PPS*%
X113276000Y40894000D02*
X111879000Y42291000D01*
X44704000Y94480000D02*
X42799000Y92575000D01*
X114419000Y41275000D02*
X114038000Y40894000D01*
X37084000Y41148000D02*
X37084000Y40513000D01*
X49149000Y6985000D02*
X49530000Y6604000D01*
X108704000Y40513000D02*
X108704000Y35814000D01*
X44704000Y97909000D02*
X44704000Y94480000D01*
X109847000Y42291000D02*
X109466000Y41910000D01*
X44704000Y46609000D02*
X44704000Y43180000D01*
X37084000Y40513000D02*
X37084000Y35814000D01*
X49149000Y58285000D02*
X49530000Y57904000D01*
X111244000Y93591000D02*
X109847000Y93591000D01*
X44196000Y58285000D02*
X49149000Y58285000D01*
X109720000Y62857000D02*
X110863000Y61714000D01*
X44196000Y6985000D02*
X49149000Y6985000D01*
X113276000Y92194000D02*
X111879000Y93591000D01*
X109720000Y86098000D02*
X109720000Y82034000D01*
X42799000Y92575000D02*
X42418000Y92194000D01*
X110863000Y10414000D02*
X114292000Y6985000D01*
X41656000Y92194000D02*
X40259000Y93591000D01*
X120769000Y58285000D02*
X121150000Y57904000D01*
X42672000Y58285000D02*
X44196000Y58285000D01*
X39243000Y10414000D02*
X42672000Y6985000D01*
X116324000Y94480000D02*
X114419000Y92575000D01*
X114038000Y40894000D02*
X113276000Y40894000D01*
X115816000Y58285000D02*
X120769000Y58285000D01*
X120769000Y6985000D02*
X121150000Y6604000D01*
X37846000Y93210000D02*
X37084000Y92448000D01*
X37846000Y41910000D02*
X37084000Y41148000D01*
X38100000Y86098000D02*
X38100000Y82034000D01*
X42418000Y92194000D02*
X41656000Y92194000D01*
X111244000Y42291000D02*
X109847000Y42291000D01*
X39243000Y61714000D02*
X42672000Y58285000D01*
X39624000Y93591000D02*
X38227000Y93591000D01*
X109720000Y11557000D02*
X110863000Y10414000D01*
X37465000Y86733000D02*
X38100000Y86098000D01*
X108704000Y87114000D02*
X109085000Y86733000D01*
X38100000Y11557000D02*
X39243000Y10414000D01*
X111879000Y93591000D02*
X111244000Y93591000D01*
X111879000Y42291000D02*
X111244000Y42291000D01*
X37084000Y35814000D02*
X37465000Y35433000D01*
X109720000Y34798000D02*
X109720000Y30734000D01*
X110863000Y61714000D02*
X114292000Y58285000D01*
X109085000Y35433000D02*
X109720000Y34798000D01*
X37084000Y91813000D02*
X37084000Y87114000D01*
X42799000Y41275000D02*
X42418000Y40894000D01*
X109466000Y93210000D02*
X108704000Y92448000D01*
X109720000Y82034000D02*
X109720000Y62857000D01*
X37084000Y87114000D02*
X37465000Y86733000D01*
X38100000Y62857000D02*
X39243000Y61714000D01*
X38100000Y34798000D02*
X38100000Y30734000D01*
X39624000Y42291000D02*
X38227000Y42291000D01*
X114419000Y92575000D02*
X114038000Y92194000D01*
X37084000Y92448000D02*
X37084000Y91813000D01*
X114292000Y6985000D02*
X115816000Y6985000D01*
X114292000Y58285000D02*
X115816000Y58285000D01*
X40259000Y93591000D02*
X39624000Y93591000D01*
X116324000Y43180000D02*
X114419000Y41275000D01*
X38100000Y82034000D02*
X38100000Y62857000D01*
X38100000Y30734000D02*
X38100000Y11557000D01*
X108704000Y35814000D02*
X109085000Y35433000D01*
X109466000Y41910000D02*
X108704000Y41148000D01*
X44704000Y43180000D02*
X42799000Y41275000D01*
X40259000Y42291000D02*
X39624000Y42291000D01*
X108704000Y92448000D02*
X108704000Y91813000D01*
X41656000Y40894000D02*
X40259000Y42291000D01*
X108704000Y91813000D02*
X108704000Y87114000D01*
X115816000Y6985000D02*
X120769000Y6985000D01*
X109720000Y30734000D02*
X109720000Y11557000D01*
X109085000Y86733000D02*
X109720000Y86098000D01*
X38227000Y42291000D02*
X37846000Y41910000D01*
X116324000Y46609000D02*
X116324000Y43180000D01*
X108704000Y41148000D02*
X108704000Y40513000D01*
X42672000Y6985000D02*
X44196000Y6985000D01*
X42418000Y40894000D02*
X41656000Y40894000D01*
X114038000Y92194000D02*
X113276000Y92194000D01*
X38227000Y93591000D02*
X37846000Y93210000D01*
X37465000Y35433000D02*
X38100000Y34798000D01*
X116324000Y97909000D02*
X116324000Y94480000D01*
X109847000Y93591000D02*
X109466000Y93210000D01*
%TO.N,RTK_LED*%
X109212000Y34544000D02*
X109212000Y16637000D01*
X113530000Y41529000D02*
X112260000Y42799000D01*
X36576000Y41402000D02*
X36576000Y35560000D01*
X36830000Y67175000D02*
X37465000Y66540000D01*
X37592000Y16637000D02*
X36830000Y15875000D01*
X112133000Y57523000D02*
X117340000Y57523000D01*
X38354000Y8382000D02*
X40513000Y6223000D01*
X109593000Y42799000D02*
X108196000Y41402000D01*
X37465000Y15240000D02*
X37465000Y10287000D01*
X37465000Y60571000D02*
X38354000Y59682000D01*
X37592000Y34544000D02*
X37592000Y16637000D01*
X109085000Y10287000D02*
X109085000Y9271000D01*
X109085000Y66540000D02*
X109085000Y61587000D01*
X108196000Y92702000D02*
X108196000Y86860000D01*
X109085000Y60571000D02*
X109974000Y59682000D01*
X37465000Y61587000D02*
X37465000Y60571000D01*
X108196000Y35560000D02*
X109212000Y34544000D01*
X37973000Y94099000D02*
X36576000Y92702000D01*
X36576000Y35560000D02*
X37592000Y34544000D01*
X109974000Y59682000D02*
X112133000Y57523000D01*
X109212000Y67937000D02*
X108450000Y67175000D01*
X41910000Y92829000D02*
X40640000Y94099000D01*
X109085000Y15240000D02*
X109085000Y10287000D01*
X41910000Y41529000D02*
X40640000Y42799000D01*
X108196000Y86860000D02*
X109212000Y85844000D01*
X37592000Y67937000D02*
X36830000Y67175000D01*
X108450000Y15875000D02*
X109085000Y15240000D01*
X37592000Y85844000D02*
X37592000Y67937000D01*
X37465000Y10287000D02*
X37465000Y9271000D01*
X37465000Y9271000D02*
X38354000Y8382000D01*
X112133000Y6223000D02*
X117340000Y6223000D01*
X108450000Y67175000D02*
X109085000Y66540000D01*
X108196000Y41402000D02*
X108196000Y35560000D01*
X36576000Y92702000D02*
X36576000Y86860000D01*
X109212000Y16637000D02*
X108450000Y15875000D01*
X37973000Y42799000D02*
X36576000Y41402000D01*
X109085000Y9271000D02*
X109974000Y8382000D01*
X40640000Y94099000D02*
X37973000Y94099000D01*
X40640000Y42799000D02*
X37973000Y42799000D01*
X112260000Y42799000D02*
X109593000Y42799000D01*
X113530000Y92829000D02*
X112260000Y94099000D01*
X112260000Y94099000D02*
X109593000Y94099000D01*
X109085000Y61587000D02*
X109085000Y60571000D01*
X40513000Y6223000D02*
X45720000Y6223000D01*
X109212000Y85844000D02*
X109212000Y67937000D01*
X109593000Y94099000D02*
X108196000Y92702000D01*
X109974000Y8382000D02*
X112133000Y6223000D01*
X36830000Y15875000D02*
X37465000Y15240000D01*
X40513000Y57523000D02*
X45720000Y57523000D01*
X37465000Y66540000D02*
X37465000Y61587000D01*
X38354000Y59682000D02*
X40513000Y57523000D01*
X36576000Y86860000D02*
X37592000Y85844000D01*
%TO.N,TX4*%
X36830000Y4318000D02*
X36830000Y6350000D01*
X102949900Y7151100D02*
X99560000Y10541000D01*
X27940000Y61841000D02*
X27940000Y67175000D01*
X36028900Y58451100D02*
X31329900Y58451100D01*
X108450000Y4318000D02*
X108450000Y6350000D01*
X36830000Y6350000D02*
X36028900Y7151100D01*
X108450000Y6350000D02*
X107648900Y7151100D01*
X36028900Y7151100D02*
X31329900Y7151100D01*
X31329900Y58451100D02*
X27940000Y61841000D01*
X107648900Y58451100D02*
X102949900Y58451100D01*
X27940000Y10541000D02*
X27940000Y15875000D01*
X107648900Y7151100D02*
X102949900Y7151100D01*
X36830000Y55618000D02*
X36830000Y57650000D01*
X99560000Y10541000D02*
X99560000Y15875000D01*
X108450000Y55618000D02*
X108450000Y57650000D01*
X31329900Y7151100D02*
X27940000Y10541000D01*
X36830000Y57650000D02*
X36028900Y58451100D01*
X102949900Y58451100D02*
X99560000Y61841000D01*
X108450000Y57650000D02*
X107648900Y58451100D01*
X99560000Y61841000D02*
X99560000Y67175000D01*
%TO.N,RX4*%
X26670000Y15875000D02*
X26670000Y11176000D01*
X98290000Y15875000D02*
X98290000Y11176000D01*
X31242000Y57904000D02*
X35560000Y57904000D01*
X26670000Y62476000D02*
X28067000Y61079000D01*
X99687000Y9779000D02*
X102862000Y6604000D01*
X102862000Y57904000D02*
X107180000Y57904000D01*
X26670000Y67175000D02*
X26670000Y62476000D01*
X28067000Y9779000D02*
X31242000Y6604000D01*
X98290000Y11176000D02*
X99687000Y9779000D01*
X99687000Y61079000D02*
X102862000Y57904000D01*
X31242000Y6604000D02*
X35560000Y6604000D01*
X102862000Y6604000D02*
X107180000Y6604000D01*
X98290000Y67175000D02*
X98290000Y62476000D01*
X28067000Y61079000D02*
X31242000Y57904000D01*
X26670000Y11176000D02*
X28067000Y9779000D01*
X98290000Y62476000D02*
X99687000Y61079000D01*
%TO.N,GP2*%
X111879000Y57015000D02*
X107815000Y61079000D01*
X115562000Y5715000D02*
X111879000Y5715000D01*
X107815000Y61079000D02*
X107815000Y66540000D01*
X107815000Y9779000D02*
X107815000Y15240000D01*
X44450000Y56507000D02*
X43942000Y57015000D01*
X36195000Y61079000D02*
X36195000Y66540000D01*
X36195000Y15240000D02*
X35560000Y15875000D01*
X107815000Y66540000D02*
X107180000Y67175000D01*
X116070000Y5207000D02*
X115562000Y5715000D01*
X43942000Y57015000D02*
X40259000Y57015000D01*
X107815000Y15240000D02*
X107180000Y15875000D01*
X116070000Y56507000D02*
X115562000Y57015000D01*
X44450000Y5207000D02*
X43942000Y5715000D01*
X40259000Y57015000D02*
X36195000Y61079000D01*
X43942000Y5715000D02*
X40259000Y5715000D01*
X40259000Y5715000D02*
X36195000Y9779000D01*
X115562000Y57015000D02*
X111879000Y57015000D01*
X36195000Y9779000D02*
X36195000Y15240000D01*
X111879000Y5715000D02*
X107815000Y9779000D01*
X36195000Y66540000D02*
X35560000Y67175000D01*
%TO.N,LOG_BTN*%
X110609000Y5715000D02*
X111117000Y5207000D01*
X36830000Y85424900D02*
X36830000Y69715000D01*
X108450000Y85424900D02*
X108450000Y69715000D01*
X106545000Y64762000D02*
X106545000Y61079000D01*
X36830000Y18415000D02*
X34290000Y15875000D01*
X115562000Y55618000D02*
X118356000Y55618000D01*
X43815000Y55745000D02*
X43942000Y55618000D01*
X34925000Y61079000D02*
X38989000Y57015000D01*
X105910000Y15875000D02*
X106545000Y15240000D01*
X43053000Y56507000D02*
X43815000Y55745000D01*
X108450000Y34124900D02*
X108450000Y18415000D01*
X34290000Y15875000D02*
X34925000Y15240000D01*
X115562000Y4318000D02*
X118356000Y4318000D01*
X108450000Y18415000D02*
X105910000Y15875000D01*
X42164000Y56507000D02*
X43053000Y56507000D01*
X36830000Y34124900D02*
X36830000Y18415000D01*
X113784000Y5207000D02*
X114673000Y5207000D01*
X115435000Y55745000D02*
X115562000Y55618000D01*
X46736000Y4318000D02*
X46863000Y4445000D01*
X34925000Y13462000D02*
X34925000Y9779000D01*
X34925000Y15240000D02*
X34925000Y13462000D01*
X108450000Y69715000D02*
X105910000Y67175000D01*
X36830000Y69715000D02*
X34290000Y67175000D01*
X106545000Y66540000D02*
X106545000Y64762000D01*
X108411900Y85463000D02*
X108450000Y85424900D01*
X108411900Y34163000D02*
X108450000Y34124900D01*
X118356000Y4318000D02*
X118483000Y4445000D01*
X113784000Y56507000D02*
X114673000Y56507000D01*
X114673000Y56507000D02*
X115435000Y55745000D01*
X36791900Y85463000D02*
X36830000Y85424900D01*
X115435000Y4445000D02*
X115562000Y4318000D01*
X106545000Y9779000D02*
X110609000Y5715000D01*
X111117000Y56507000D02*
X113784000Y56507000D01*
X36791900Y34163000D02*
X36830000Y34124900D01*
X43815000Y4445000D02*
X43942000Y4318000D01*
X38989000Y5715000D02*
X39497000Y5207000D01*
X42164000Y5207000D02*
X43053000Y5207000D01*
X34290000Y67175000D02*
X34925000Y66540000D01*
X105910000Y67175000D02*
X106545000Y66540000D01*
X111117000Y5207000D02*
X113784000Y5207000D01*
X34925000Y66540000D02*
X34925000Y64762000D01*
X34925000Y64762000D02*
X34925000Y61079000D01*
X38989000Y57015000D02*
X39497000Y56507000D01*
X39497000Y5207000D02*
X42164000Y5207000D01*
X106545000Y15240000D02*
X106545000Y13462000D01*
X43942000Y4318000D02*
X46736000Y4318000D01*
X106545000Y61079000D02*
X110609000Y57015000D01*
X118356000Y55618000D02*
X118483000Y55745000D01*
X110609000Y57015000D02*
X111117000Y56507000D01*
X106545000Y13462000D02*
X106545000Y9779000D01*
X43053000Y5207000D02*
X43815000Y4445000D01*
X43942000Y55618000D02*
X46736000Y55618000D01*
X114673000Y5207000D02*
X115435000Y4445000D01*
X46736000Y55618000D02*
X46863000Y55745000D01*
X34925000Y9779000D02*
X38989000Y5715000D01*
X39497000Y56507000D02*
X42164000Y56507000D01*
D14*
%TO.N,VUSB*%
X76827000Y69588000D02*
X76827000Y94861000D01*
X79621000Y66794000D02*
X76827000Y69588000D01*
X7493000Y64508000D02*
X8001000Y65016000D01*
X5207000Y18288000D02*
X5207000Y43561000D01*
X8001000Y15494000D02*
X5207000Y18288000D01*
D16*
X91940000Y71620000D02*
X93210000Y71620000D01*
D14*
X78605000Y13208000D02*
X79113000Y13208000D01*
X8001000Y65016000D02*
X8001000Y66794000D01*
X8001000Y66794000D02*
X5207000Y69588000D01*
X78605000Y8382000D02*
X78605000Y13208000D01*
X78605000Y59682000D02*
X78605000Y64508000D01*
X79113000Y13208000D02*
X79621000Y13716000D01*
X94226000Y46736000D02*
X97020000Y49530000D01*
X79621000Y15494000D02*
X76827000Y18288000D01*
X8382000Y98036000D02*
X22606000Y98036000D01*
X80002000Y98036000D02*
X94226000Y98036000D01*
X6985000Y13208000D02*
X7493000Y13208000D01*
D16*
X10795000Y62095000D02*
X20320000Y71620000D01*
D14*
X5207000Y69588000D02*
X5207000Y94861000D01*
X76827000Y94861000D02*
X80002000Y98036000D01*
X80002000Y46736000D02*
X94226000Y46736000D01*
X8382000Y46736000D02*
X22606000Y46736000D01*
X8001000Y13716000D02*
X8001000Y15494000D01*
X5207000Y94861000D02*
X8382000Y98036000D01*
X6985000Y8382000D02*
X6985000Y13208000D01*
X7493000Y13208000D02*
X8001000Y13716000D01*
X76827000Y43561000D02*
X80002000Y46736000D01*
X6985000Y64508000D02*
X7493000Y64508000D01*
D16*
X20320000Y71620000D02*
X21590000Y71620000D01*
D14*
X79621000Y13716000D02*
X79621000Y15494000D01*
D16*
X82415000Y62095000D02*
X91940000Y71620000D01*
X82415000Y10795000D02*
X91940000Y20320000D01*
X91940000Y20320000D02*
X93210000Y20320000D01*
X20320000Y20320000D02*
X21590000Y20320000D01*
D14*
X22606000Y98036000D02*
X25400000Y100830000D01*
X78605000Y64508000D02*
X79113000Y64508000D01*
X6985000Y59682000D02*
X6985000Y64508000D01*
X94226000Y98036000D02*
X97020000Y100830000D01*
D16*
X10795000Y10795000D02*
X20320000Y20320000D01*
D14*
X22606000Y46736000D02*
X25400000Y49530000D01*
X79621000Y65016000D02*
X79621000Y66794000D01*
X5207000Y43561000D02*
X8382000Y46736000D01*
X76827000Y18288000D02*
X76827000Y43561000D01*
X79113000Y64508000D02*
X79621000Y65016000D01*
D16*
%TO.N,ON_OFF*%
X107727100Y74707100D02*
X107688000Y74668000D01*
X40005000Y45339000D02*
X36107100Y41441100D01*
X36107100Y23407100D02*
X36068000Y23368000D01*
X111625000Y96639000D02*
X107727100Y92741100D01*
X40005000Y96639000D02*
X36107100Y92741100D01*
X36107100Y74707100D02*
X36068000Y74668000D01*
X114800000Y49530000D02*
X114800000Y45847000D01*
X43180000Y45847000D02*
X42672000Y45339000D01*
X43180000Y97147000D02*
X42672000Y96639000D01*
X114800000Y97147000D02*
X114292000Y96639000D01*
X107727100Y92741100D02*
X107727100Y74707100D01*
X114292000Y45339000D02*
X111625000Y45339000D01*
X114292000Y96639000D02*
X111625000Y96639000D01*
X111625000Y45339000D02*
X107727100Y41441100D01*
X107727100Y23407100D02*
X107688000Y23368000D01*
X114800000Y45847000D02*
X114292000Y45339000D01*
X43180000Y100830000D02*
X43180000Y97147000D01*
X36107100Y41441100D02*
X36107100Y23407100D01*
X42672000Y96639000D02*
X40005000Y96639000D01*
X36107100Y92741100D02*
X36107100Y74707100D01*
X42672000Y45339000D02*
X40005000Y45339000D01*
X114800000Y100830000D02*
X114800000Y97147000D01*
X107727100Y41441100D02*
X107727100Y23407100D01*
X43180000Y49530000D02*
X43180000Y45847000D01*
D14*
%TO.N,VBATT*%
X13843000Y69715000D02*
X16637000Y69715000D01*
X80256000Y94226000D02*
X79367000Y93337000D01*
X89781000Y19939000D02*
X91432000Y21590000D01*
X78097000Y22987000D02*
X78097000Y20955000D01*
X26289000Y21590000D02*
X26797000Y21082000D01*
X7747000Y90797000D02*
X7747000Y75557000D01*
X91432000Y94226000D02*
X80256000Y94226000D01*
X95115000Y72890000D02*
X97909000Y72890000D01*
X7747000Y24257000D02*
X6477000Y22987000D01*
X7747000Y42037000D02*
X7747000Y39497000D01*
X8636000Y42926000D02*
X7747000Y42037000D01*
X91432000Y21590000D02*
X94226000Y21590000D01*
X78097000Y72255000D02*
X80637000Y69715000D01*
X79367000Y42037000D02*
X79367000Y39497000D01*
X26797000Y72382000D02*
X27305000Y71874000D01*
X21336000Y42926000D02*
X19812000Y42926000D01*
X79367000Y93337000D02*
X79367000Y90797000D01*
X88257000Y69715000D02*
X89781000Y71239000D01*
X19812000Y94226000D02*
X8636000Y94226000D01*
X19812000Y42926000D02*
X8636000Y42926000D01*
X92956000Y42926000D02*
X91432000Y42926000D01*
X79367000Y39497000D02*
X79367000Y24257000D01*
X18161000Y71239000D02*
X19812000Y72890000D01*
X9017000Y18415000D02*
X13843000Y18415000D01*
X99560000Y100830000D02*
X92956000Y94226000D01*
X88257000Y18415000D02*
X89781000Y19939000D01*
X26797000Y21082000D02*
X27305000Y20574000D01*
X23495000Y21590000D02*
X26289000Y21590000D01*
X94226000Y72890000D02*
X95115000Y72890000D01*
X95115000Y21590000D02*
X97909000Y21590000D01*
X27940000Y49530000D02*
X21336000Y42926000D01*
X78097000Y74287000D02*
X78097000Y72255000D01*
X27940000Y100830000D02*
X21336000Y94226000D01*
X18161000Y19939000D02*
X19812000Y21590000D01*
X7747000Y39497000D02*
X7747000Y24257000D01*
X97909000Y21590000D02*
X98417000Y21082000D01*
X79367000Y90797000D02*
X79367000Y75557000D01*
X23495000Y21590000D02*
X23495000Y20955000D01*
X98417000Y21082000D02*
X98925000Y20574000D01*
X16637000Y69715000D02*
X18161000Y71239000D01*
X95115000Y21590000D02*
X95115000Y20955000D01*
X89781000Y71239000D02*
X91432000Y72890000D01*
X8636000Y94226000D02*
X7747000Y93337000D01*
X85463000Y18415000D02*
X88257000Y18415000D01*
X97909000Y72890000D02*
X98417000Y72382000D01*
X92956000Y94226000D02*
X91432000Y94226000D01*
X85463000Y69715000D02*
X88257000Y69715000D01*
X23495000Y72890000D02*
X23495000Y72255000D01*
X80637000Y18415000D02*
X85463000Y18415000D01*
X91432000Y72890000D02*
X94226000Y72890000D01*
X27305000Y71874000D02*
X27305000Y69969000D01*
X98925000Y20574000D02*
X98925000Y18669000D01*
X6477000Y72255000D02*
X9017000Y69715000D01*
X91432000Y42926000D02*
X80256000Y42926000D01*
X19812000Y72890000D02*
X22606000Y72890000D01*
X79367000Y75557000D02*
X78097000Y74287000D01*
X79367000Y24257000D02*
X78097000Y22987000D01*
X98417000Y72382000D02*
X98925000Y71874000D01*
X22606000Y72890000D02*
X23495000Y72890000D01*
X98925000Y71874000D02*
X98925000Y69969000D01*
X21336000Y94226000D02*
X19812000Y94226000D01*
X19812000Y21590000D02*
X22606000Y21590000D01*
X27305000Y20574000D02*
X27305000Y18669000D01*
X6477000Y22987000D02*
X6477000Y20955000D01*
X94226000Y21590000D02*
X95115000Y21590000D01*
X80256000Y42926000D02*
X79367000Y42037000D01*
X22606000Y21590000D02*
X23495000Y21590000D01*
X78097000Y20955000D02*
X80637000Y18415000D01*
X6477000Y20955000D02*
X9017000Y18415000D01*
X26289000Y72890000D02*
X26797000Y72382000D01*
X16637000Y18415000D02*
X18161000Y19939000D01*
X7747000Y93337000D02*
X7747000Y90797000D01*
X9017000Y69715000D02*
X13843000Y69715000D01*
X23495000Y72890000D02*
X26289000Y72890000D01*
X99560000Y49530000D02*
X92956000Y42926000D01*
X7747000Y75557000D02*
X6477000Y74287000D01*
X13843000Y18415000D02*
X16637000Y18415000D01*
X6477000Y74287000D02*
X6477000Y72255000D01*
X95115000Y72890000D02*
X95115000Y72255000D01*
X80637000Y69715000D02*
X85463000Y69715000D01*
D16*
%TO.N,2V8_IN*%
X53300900Y33996900D02*
X55459900Y33996900D01*
X55459900Y33996900D02*
X56007000Y34544000D01*
X38100000Y91940000D02*
X45720000Y84320000D01*
X127079900Y85296900D02*
X127627000Y85844000D01*
X127079900Y33996900D02*
X127627000Y34544000D01*
X123944000Y33020000D02*
X124920900Y33996900D01*
X45720000Y84320000D02*
X52324000Y84320000D01*
X117340000Y33020000D02*
X123944000Y33020000D01*
X56007000Y34544000D02*
X57150000Y34544000D01*
X52324000Y33020000D02*
X53300900Y33996900D01*
X52324000Y84320000D02*
X53300900Y85296900D01*
X109720000Y91940000D02*
X117340000Y84320000D01*
X109720000Y40640000D02*
X117340000Y33020000D01*
X56007000Y85844000D02*
X57150000Y85844000D01*
X45720000Y33020000D02*
X52324000Y33020000D01*
X38100000Y40640000D02*
X45720000Y33020000D01*
X124920900Y85296900D02*
X127079900Y85296900D01*
X127627000Y85844000D02*
X128770000Y85844000D01*
X127627000Y34544000D02*
X128770000Y34544000D01*
X123944000Y84320000D02*
X124920900Y85296900D01*
X124920900Y33996900D02*
X127079900Y33996900D01*
X53300900Y85296900D02*
X55459900Y85296900D01*
X55459900Y85296900D02*
X56007000Y85844000D01*
X117340000Y84320000D02*
X123944000Y84320000D01*
%TD*%
M02*
